<svg width="729" height="685" viewBox="0 0 729 685" fill="none" xmlns="http://www.w3.org/2000/svg">
<rect x="6.20801" y="180.584" width="60" height="241" rx="30" transform="rotate(-15 6.20801 180.584)" fill="#00A3FF"/>
<rect x="535.667" y="38.7155" width="60" height="241" rx="30" transform="rotate(-15 535.667 38.7155)" fill="#00A3FF"/>
<path d="M39.0205 302.251L96.9761 286.722L159.351 519.51L137.135 525.463C117.397 530.752 97.1084 519.038 91.8196 499.3L39.0205 302.251Z" fill="#7E7E7E"/>
<path d="M568.865 162.35L626.821 146.821L679.62 343.87C684.909 363.608 673.195 383.896 653.457 389.185L631.241 395.138L568.865 162.35Z" fill="#7E7E7E"/>
<circle cx="365.463" cy="342.12" r="263" transform="rotate(-15 365.463 342.12)" fill="#00A3FF" stroke="white" stroke-width="20"/>
<rect x="384.336" y="180.736" width="80" height="160" rx="40" transform="rotate(-15 384.336 180.736)" fill="white" stroke="white" stroke-width="20"/>
<rect x="191.151" y="232.5" width="80" height="160" rx="40" transform="rotate(-15 191.151 232.5)" fill="white" stroke="white" stroke-width="20"/>
<path d="M461.538 403.34C468.496 401.475 475.648 405.605 477.513 412.563C489.942 458.951 462.413 506.633 416.025 519.063L410.146 520.638C363.757 533.068 316.076 505.539 303.646 459.15C301.782 452.192 305.911 445.04 312.869 443.176L461.538 403.34Z" fill="white"/>
</svg>
